<?xml version="1.0" standalone="no"?>
<!DOCTYPE svg PUBLIC "-//W3C//DTD SVG 20010904//EN"
 "http://www.w3.org/TR/2001/REC-SVG-20010904/DTD/svg10.dtd">
<svg version="1.0" xmlns="http://www.w3.org/2000/svg"
 width="297.000000pt" height="297.000000pt" viewBox="0 0 297.000000 297.000000"
 preserveAspectRatio="xMidYMid meet">

<g transform="translate(0.000000,297.000000) scale(0.100000,-0.100000)"
fill="#000000" stroke="none">
<path d="M430 2962 c0 -7 9 -31 20 -52 l20 -40 -47 -1 c-76 0 -113 -18 -155
-74 -46 -61 -62 -129 -56 -240 3 -64 10 -91 31 -129 15 -27 27 -50 27 -52 0
-1 -12 -5 -27 -7 l-28 -4 26 -2 c46 -2 105 -70 128 -146 12 -37 21 -77 21 -89
1 -31 16 -1 25 49 18 99 101 185 180 185 39 0 99 -35 138 -81 34 -39 77 -141
77 -181 0 -10 5 -18 10 -18 6 0 10 13 10 29 0 43 26 107 61 150 72 90 198 94
287 8 44 -42 69 -92 91 -180 l18 -72 7 45 c17 96 78 189 151 227 39 21 133 20
175 -2 51 -26 114 -96 145 -160 39 -78 47 -213 19 -302 -26 -83 -99 -157 -171
-172 -139 -29 -268 74 -311 249 l-19 75 -11 -53 c-15 -68 -46 -128 -84 -163
l-31 -28 39 14 c85 31 161 8 232 -70 73 -80 106 -166 106 -280 1 -80 -2 -96
-28 -145 -37 -72 -70 -106 -122 -126 -56 -21 -117 -12 -176 25 -75 47 -125
128 -149 242 l-12 54 -12 -47 c-28 -106 -80 -171 -153 -193 -107 -32 -250 110
-269 265 l-6 55 -12 -51 c-14 -61 -55 -135 -90 -163 -42 -32 -79 -35 -129 -11
-52 25 -86 66 -128 155 -29 62 -30 71 -26 163 3 90 6 100 36 144 17 26 32 49
32 52 0 3 -26 6 -58 6 -53 0 -63 4 -101 36 -23 20 -51 54 -62 76 -11 22 -23
38 -25 35 -10 -9 34 -82 68 -113 34 -33 84 -54 124 -54 30 0 30 -4 2 -49 -20
-32 -23 -49 -23 -146 0 -102 2 -114 29 -168 55 -107 121 -167 186 -167 l31 0
-16 -31 c-9 -17 -14 -33 -12 -35 2 -3 10 9 17 25 6 16 18 32 27 35 8 3 12 10
9 15 -8 12 56 41 91 41 45 -1 106 -34 145 -79 35 -41 88 -162 88 -201 0 -10 5
-22 10 -25 6 -4 10 7 10 27 1 44 30 106 69 145 119 119 313 9 366 -208 19 -78
21 -77 44 6 6 23 25 60 43 83 43 55 97 77 179 69 75 -7 124 -38 188 -120 36
-46 49 -57 67 -53 29 8 37 -3 21 -28 -14 -20 -12 -21 47 -21 111 -1 176 -55
178 -149 l1 -47 21 33 c12 18 39 63 58 100 34 61 35 67 20 81 -26 22 -80 37
-136 37 -40 1 -47 3 -33 11 9 5 17 16 17 24 0 14 37 30 173 71 85 26 89 28
121 78 18 28 58 100 90 160 45 83 56 113 49 125 -13 20 -88 50 -130 50 -48 1
-66 10 -52 27 21 26 -27 53 -94 54 -118 0 -221 73 -279 195 -56 121 -59 229
-8 340 78 170 243 216 399 110 l51 -34 105 4 106 3 38 -36 c70 -67 97 -201 67
-332 -4 -17 -1 -13 10 10 12 27 15 57 12 130 -4 87 -8 103 -49 195 -52 114
-30 104 -192 87 -60 -6 -80 -5 -89 5 -6 7 -22 13 -36 13 -14 0 -23 3 -19 6 5
6 206 32 249 34 16 0 16 4 -5 46 l-22 46 -134 -7 c-121 -6 -134 -5 -122 9 17
20 6 36 -25 36 -33 0 -31 18 4 25 101 21 202 61 202 80 0 15 -68 166 -114 254
l-33 63 -111 2 c-76 1 -115 5 -124 14 -11 11 8 12 105 6 132 -8 135 -6 91 58
l-27 38 -211 -1 -211 0 -37 -49 c-77 -101 -182 -130 -283 -78 -44 23 -115 97
-115 120 0 4 -20 8 -44 8 -36 0 -46 -4 -51 -21 -10 -29 -60 -85 -101 -110 -81
-49 -190 -16 -254 78 -29 43 -40 52 -65 53 -26 0 -34 -7 -55 -46 -81 -151
-246 -141 -315 18 -8 18 -14 27 -15 20z m1452 -82 c21 -6 59 -27 85 -48 47
-36 50 -37 138 -37 103 -1 142 -16 173 -67 42 -71 36 -138 -20 -197 -31 -33
-119 -81 -149 -81 -10 0 -29 -25 -48 -65 -71 -143 -187 -202 -313 -159 -66 22
-119 72 -159 150 -30 59 -34 79 -38 157 -4 108 9 164 56 234 68 103 166 143
275 113z m-999 -14 c39 -16 92 -66 113 -108 8 -16 24 -62 34 -101 l18 -72 7
40 c27 163 112 255 234 255 95 0 158 -49 213 -165 29 -63 32 -79 32 -160 0
-82 -3 -96 -34 -158 -24 -48 -48 -80 -82 -107 -91 -72 -176 -64 -268 28 -57
58 -79 102 -95 197 l-7 40 -17 -65 c-36 -142 -112 -217 -214 -208 -67 6 -117
39 -156 103 -38 65 -51 114 -51 200 0 88 13 135 56 203 52 81 137 112 217 78z
m-363 -53 c44 -50 70 -118 77 -204 14 -166 -97 -325 -212 -303 -49 9 -79 35
-122 107 -34 59 -37 67 -39 157 l-2 95 7 -80 c11 -142 86 -249 175 -249 107 0
192 159 165 308 -13 72 -31 110 -72 153 -70 74 -161 63 -219 -25 -10 -15 -18
-22 -18 -15 0 19 52 75 85 89 18 9 52 13 85 11 49 -4 58 -8 90 -44z m1353
-1137 c42 -15 112 -75 145 -123 12 -18 28 -33 35 -33 22 0 38 -22 26 -36 -18
-22 0 -34 52 -34 99 0 169 -54 177 -139 2 -29 -1 -64 -8 -81 -13 -31 -73 -90
-92 -90 -6 0 2 10 18 22 30 23 37 32 34 44 -1 4 4 11 12 15 10 7 9 9 -4 9 -10
0 -18 -6 -18 -14 0 -16 -43 -30 -48 -16 -6 16 -55 0 -80 -26 -13 -13 -28 -24
-35 -24 -7 0 -31 -22 -55 -49 -58 -67 -116 -95 -190 -89 -109 8 -193 73 -253
194 -33 66 -34 73 -34 184 0 125 14 170 73 233 60 64 156 84 245 53z m292
-577 c-105 -33 -95 -31 -95 -20 0 5 21 14 48 20 26 5 58 14 72 20 14 5 34 10
45 10 11 0 -20 -14 -70 -30z"/>
<path d="M1733 2835 c-51 -22 -109 -87 -133 -151 -76 -194 37 -421 215 -432
55 -4 64 -1 110 30 123 82 164 242 104 403 -20 54 -82 122 -136 149 -39 19
-117 20 -160 1z"/>
<path d="M739 2821 c-95 -60 -137 -228 -89 -355 56 -147 180 -198 276 -114 54
47 76 100 82 193 6 105 -15 180 -66 237 -66 73 -130 86 -203 39z"/>
<path d="M1215 2833 c-50 -26 -82 -62 -110 -125 -25 -55 -27 -69 -23 -152 5
-99 22 -146 79 -211 42 -48 119 -71 181 -55 55 15 120 81 142 146 23 68 21
189 -4 258 -46 123 -172 189 -265 139z"/>
<path d="M1687 1620 c-80 -51 -127 -175 -106 -285 22 -121 81 -211 169 -259
100 -54 209 -22 267 79 31 56 44 142 32 217 -33 214 -217 340 -362 248z"/>
<path d="M450 2960 c0 -24 83 -100 116 -106 72 -13 146 26 184 96 10 20 8 20
-145 20 -99 0 -155 -4 -155 -10z"/>
<path d="M886 2958 c40 -69 97 -108 156 -108 49 1 110 32 141 73 15 20 27 38
27 41 0 3 -75 6 -166 6 -129 0 -164 -3 -158 -12z"/>
<path d="M1369 2953 c26 -49 112 -103 163 -103 49 0 102 23 144 62 24 22 44
44 44 49 0 5 -81 9 -180 9 -169 0 -180 -1 -171 -17z"/>
<path d="M2364 2958 c-3 -4 3 -24 13 -45 l18 -38 288 -3 287 -2 0 45 0 44
-301 3 c-165 2 -303 0 -305 -4z"/>
<path d="M2420 2831 c0 -37 22 -42 187 -42 87 -1 176 -5 198 -11 75 -18 136
-27 151 -21 9 3 14 20 14 49 l0 44 -275 0 c-262 0 -275 -1 -275 -19z"/>
<path d="M2855 2430 c-38 -4 -102 -8 -142 -9 -39 0 -74 -5 -77 -9 -2 -4 4 -27
14 -50 22 -49 23 -49 207 -31 l113 12 0 48 c0 55 11 52 -115 39z"/>
<path d="M173 2363 c9 -2 23 -2 30 0 6 3 -1 5 -18 5 -16 0 -22 -2 -12 -5z"/>
<path d="M110 2343 c-56 -39 -80 -77 -80 -126 0 -15 8 -5 24 29 13 28 36 60
51 72 40 32 52 27 14 -5 -52 -44 -69 -94 -69 -203 0 -110 16 -156 74 -213 138
-138 297 66 230 294 -28 94 -86 151 -156 155 -22 1 -42 4 -45 8 -10 9 -16 8
-43 -11z"/>
<path d="M519 2297 c-20 -13 -46 -45 -62 -77 -27 -52 -28 -61 -25 -155 5 -129
37 -194 119 -244 45 -28 83 -26 136 4 144 85 125 400 -29 481 -40 21 -100 17
-139 -9z"/>
<path d="M2824 2295 c-132 -14 -140 -17 -118 -51 19 -28 42 -30 176 -13 l88
12 0 33 c0 26 -4 34 -17 33 -10 -1 -68 -7 -129 -14z"/>
<path d="M991 2289 c-44 -18 -79 -49 -107 -97 -26 -43 -28 -55 -29 -152 0 -95
2 -110 27 -157 48 -89 107 -133 181 -133 59 0 95 18 132 65 69 92 74 264 9
365 -60 94 -143 137 -213 109z"/>
<path d="M1441 2238 c-32 -17 -54 -39 -80 -82 -35 -58 -36 -62 -36 -160 0 -92
3 -106 29 -159 64 -126 174 -183 274 -142 47 20 75 47 110 104 25 42 27 54 27
151 0 91 -3 112 -24 154 -69 139 -187 192 -300 134z"/>
<path d="M2015 2219 c-88 -25 -154 -127 -162 -249 -10 -135 42 -250 142 -316
102 -68 206 -55 288 36 68 76 90 178 63 295 -41 176 -185 277 -331 234z"/>
<path d="M390 2034 c0 -49 -32 -126 -69 -164 -39 -41 -41 -51 -7 -25 25 19
103 19 136 0 39 -22 43 -18 17 18 -25 32 -57 113 -57 145 0 9 -5 24 -10 32 -8
12 -10 11 -10 -6z"/>
<path d="M818 2000 c-3 -8 -14 -42 -24 -75 -24 -75 -94 -154 -140 -157 -53 -2
-87 3 -111 19 -30 20 -29 12 4 -45 15 -26 35 -76 44 -112 15 -55 17 -60 18
-30 3 82 83 192 153 211 111 29 247 -100 273 -261 9 -50 13 -44 35 42 7 26 28
65 46 87 39 45 43 56 13 41 -33 -18 -95 -14 -143 10 -78 37 -142 133 -156 233
-3 29 -9 45 -12 37z"/>
<path d="M320 1808 c-20 -13 -46 -47 -63 -78 -25 -49 -27 -64 -25 -135 4 -101
45 -196 104 -241 54 -41 120 -41 164 1 48 45 70 104 70 190 0 99 -23 166 -79
227 -39 43 -53 51 -91 55 -36 4 -52 0 -80 -19z"/>
<path d="M2905 1809 c-108 -24 -164 -42 -170 -56 -3 -9 -4 -17 -2 -19 2 -2 55
6 118 19 102 20 114 25 117 45 4 24 -1 25 -63 11z"/>
<path d="M740 1758 c-34 -18 -52 -36 -75 -78 -79 -145 -2 -390 135 -431 86
-26 166 26 196 128 21 72 14 191 -14 256 -27 62 -89 122 -137 136 -53 15 -54
14 -105 -11z"/>
<path d="M2565 1734 c-9 -14 -31 -32 -48 -39 l-32 -14 31 -1 c34 0 47 11 63
53 13 34 8 34 -14 1z"/>
<path d="M1204 1705 c-42 -19 -98 -85 -112 -134 -15 -48 -15 -154 -1 -206 18
-64 75 -149 121 -181 36 -24 53 -29 105 -29 53 0 66 4 100 31 139 112 99 422
-67 507 -59 30 -98 33 -146 12z"/>
<path d="M2441 1704 c-19 -9 -48 -16 -65 -18 -36 -3 -154 -106 -122 -106 9 0
14 4 11 10 -3 5 6 12 20 16 14 3 30 15 36 25 5 11 20 19 35 19 13 0 41 7 61
15 20 9 43 13 50 11 7 -3 12 -1 10 4 -1 5 7 16 18 24 l20 15 -20 0 c-11 0 -35
-7 -54 -15z"/>
<path d="M2885 1395 c-44 -19 -92 -34 -106 -35 -15 0 -43 -7 -62 -15 -20 -8
-51 -15 -69 -15 -42 0 -121 -24 -112 -33 4 -4 0 -8 -9 -8 -9 -1 -22 -2 -27 -3
-15 -1 -61 -86 -48 -86 17 0 192 61 203 71 5 5 19 9 30 9 12 0 66 13 119 29
65 20 109 28 132 24 19 -3 34 -1 34 4 0 6 -12 9 -27 7 l-28 -4 28 11 c22 9 27
17 27 45 0 19 -1 34 -2 33 -2 0 -39 -16 -83 -34z"/>
<path d="M494 1248 c-19 -18 -41 -51 -49 -73 -14 -39 -14 -39 -16 -10 -1 23
-4 18 -10 -20 -12 -63 -3 -184 18 -253 28 -92 128 -181 203 -182 15 0 69 13
120 30 52 16 98 30 101 30 4 0 21 -22 38 -49 41 -64 124 -121 182 -127 l44 -3
-42 9 c-63 13 -137 68 -172 125 -31 50 -56 78 -82 88 -8 3 -9 6 -4 6 13 1 7
111 -6 111 -5 0 -9 -10 -9 -22 0 -37 -55 -142 -84 -162 -66 -43 -141 -29 -206
37 -51 52 -78 102 -85 159 l-5 43 13 -40 c21 -61 42 -97 79 -131 45 -43 69
-54 117 -54 83 0 143 89 144 214 0 92 -23 170 -70 230 -45 58 -78 76 -138 76
-37 0 -52 -6 -81 -32z"/>
<path d="M950 1180 c-19 -10 -48 -40 -65 -67 -28 -45 -30 -54 -30 -148 0 -93
2 -105 33 -167 77 -157 216 -201 305 -97 111 129 52 399 -105 480 -47 24 -93
24 -138 -1z"/>
<path d="M1443 1091 c-48 -22 -98 -85 -114 -145 -6 -23 -9 -75 -6 -119 6 -96
41 -171 110 -239 114 -113 255 -89 317 54 31 73 26 198 -13 278 -37 78 -88
134 -149 164 -62 31 -89 32 -145 7z"/>
<path d="M2912 1083 c-30 -14 -86 -29 -124 -34 -107 -13 -333 -76 -413 -115
-38 -19 -76 -34 -83 -34 -11 0 -52 -56 -52 -72 0 -5 9 -8 19 -8 32 0 34 -19 4
-26 -15 -3 -35 -8 -43 -10 -8 -2 -26 -24 -39 -49 -13 -24 -33 -51 -45 -58 -28
-19 -132 -62 -236 -98 -47 -16 -121 -45 -166 -64 -87 -38 -150 -44 -212 -22
-81 30 -198 175 -222 277 l-13 54 -14 -44 c-8 -25 -15 -53 -14 -63 0 -23 -53
-73 -99 -94 -19 -9 -30 -18 -24 -20 5 -2 50 15 99 37 68 32 90 38 96 28 53
-92 136 -169 203 -188 68 -19 127 -8 276 50 119 46 258 100 615 240 55 21 154
59 220 85 66 25 166 65 223 87 l102 41 0 63 c0 35 -1 64 -2 63 -2 0 -27 -12
-56 -26z m-52 -53 c0 -5 -4 -10 -9 -10 -5 0 -16 -3 -25 -6 -9 -3 -16 -1 -16 4
0 9 16 17 43 21 4 0 7 -3 7 -9z m7 -46 c-3 -3 -12 -4 -19 -1 -8 3 -5 6 6 6 11
1 17 -2 13 -5z m-292 -64 c-3 -5 -15 -10 -26 -10 -11 0 -17 5 -14 10 3 6 15
10 26 10 11 0 17 -4 14 -10z"/>
<path d="M1972 783 c-12 -2 -20 -8 -17 -12 2 -5 -21 -11 -51 -15 -64 -7 -101
-23 -87 -37 9 -9 54 1 99 23 12 6 40 9 63 6 37 -3 41 -1 41 19 0 23 -4 24 -48
16z"/>
<path d="M1808 634 c-16 -8 -28 -18 -28 -23 0 -4 -11 -25 -25 -45 -28 -42 -27
-43 23 -17 43 22 67 47 75 79 6 26 -6 28 -45 6z"/>
</g>
</svg>
