<?xml version="1.0" standalone="no"?>
<!DOCTYPE svg PUBLIC "-//W3C//DTD SVG 20010904//EN"
 "http://www.w3.org/TR/2001/REC-SVG-20010904/DTD/svg10.dtd">
<svg version="1.0" xmlns="http://www.w3.org/2000/svg"
 width="300.000000pt" height="300.000000pt" viewBox="0 0 300.000000 300.000000"
 preserveAspectRatio="xMidYMid meet">

<g transform="translate(0.000000,300.000000) scale(0.100000,-0.100000)"
fill="#000000" stroke="none">
<path d="M2895 2818 c-33 -10 -68 -23 -77 -28 -10 -6 -24 -10 -31 -10 -12 0
-90 -24 -262 -79 -33 -11 -105 -33 -160 -50 -55 -17 -174 -53 -265 -82 -91
-28 -178 -55 -195 -59 -16 -4 -50 -15 -75 -24 -25 -8 -53 -16 -63 -16 -9 0
-25 -4 -35 -10 -16 -9 -413 -134 -477 -150 -82 -20 -143 -45 -154 -61 -19 -31
-52 -40 474 123 72 22 153 47 180 55 28 8 68 21 90 28 22 7 87 27 145 45 58
18 170 52 250 77 80 24 190 58 245 75 55 16 125 38 155 48 30 10 102 32 160
50 58 18 126 39 153 47 26 9 47 21 47 29 0 18 -31 16 -105 -8z"/>
<path d="M708 2450 c3 -25 0 -40 -7 -40 -8 0 -11 -49 -11 -156 0 -145 1 -156
18 -149 28 11 153 52 202 66 25 7 54 20 65 30 13 11 30 16 46 12 24 -4 59 17
59 36 0 8 -74 61 -86 61 -3 0 -34 20 -68 43 -35 24 -86 57 -114 73 -29 16 -52
32 -52 37 0 4 -7 7 -15 7 -8 0 -15 5 -15 10 0 6 -6 10 -13 10 -9 0 -11 -12 -9
-40z m186 -170 c18 0 25 -20 19 -54 -8 -38 -27 -27 -31 18 -2 21 -10 40 -18
43 -8 3 -14 12 -14 21 0 13 4 11 16 -6 8 -12 21 -22 28 -22z m-167 8 c-3 -8
-6 -5 -6 6 -1 11 2 17 5 13 3 -3 4 -12 1 -19z m330 -54 c-3 -3 -12 -4 -19 -1
-8 3 -5 6 6 6 11 1 17 -2 13 -5z"/>
<path d="M2905 2374 c-44 -14 -134 -43 -200 -64 -66 -21 -160 -50 -210 -65
-49 -15 -130 -40 -180 -55 -49 -16 -157 -49 -240 -75 -152 -47 -186 -57 -445
-138 -80 -25 -192 -60 -250 -77 -58 -17 -114 -35 -125 -40 -11 -4 -54 -18 -95
-30 -41 -13 -115 -36 -163 -51 -49 -16 -95 -29 -103 -29 -8 0 -22 -4 -32 -9
-9 -6 -78 -28 -152 -51 -74 -23 -160 -49 -190 -59 l-55 -18 -5 -204 c-4 -179
-6 -195 -13 -129 -5 41 -8 117 -7 168 1 78 -1 92 -14 92 -9 0 -16 6 -16 14 0
8 -3 21 -6 30 -4 11 0 16 11 16 13 0 8 7 -16 25 -19 13 -43 29 -54 34 -12 5
-27 16 -34 25 -7 9 -18 16 -24 16 -6 0 -19 7 -29 17 -17 15 -18 15 -18 -15 0
-36 -33 -78 -38 -49 -2 9 -8 17 -13 17 -6 0 -9 12 -7 28 2 21 8 27 26 26 33
-1 27 15 -13 32 -19 8 -35 18 -35 23 0 6 -8 12 -19 16 -10 3 -31 17 -46 31
-15 14 -29 23 -31 21 -8 -8 -24 -112 -24 -158 0 -51 15 -65 29 -28 7 20 8 20
20 -10 8 -17 17 -31 22 -31 5 0 9 -5 9 -12 0 -6 -7 -5 -18 5 -15 14 -21 15
-35 4 -15 -10 -17 -33 -14 -184 l2 -172 39 -36 c21 -19 44 -35 51 -35 6 0 20
-9 29 -19 10 -11 38 -29 63 -41 26 -12 53 -30 62 -40 24 -28 91 -70 112 -70
10 0 26 -11 37 -25 38 -48 57 -49 182 -10 63 19 167 51 230 70 63 19 136 42
163 51 47 16 47 16 95 -13 26 -15 55 -33 64 -38 9 -6 34 -22 55 -36 21 -15 48
-30 61 -34 18 -5 22 -2 22 15 0 12 4 18 10 15 6 -4 8 -15 5 -26 -4 -11 1 -26
12 -38 25 -26 85 -61 105 -61 9 0 21 -6 25 -13 4 -8 21 -22 36 -32 41 -26 95
-16 338 64 117 39 217 71 222 71 6 0 43 -22 84 -50 40 -27 76 -50 80 -50 3 0
20 -11 37 -24 17 -13 81 -54 141 -91 159 -99 135 -99 478 12 l107 35 0 340 0
339 -22 -6 c-52 -16 -161 -50 -283 -90 l-130 -42 -3 -139 c-1 -77 -5 -146 -8
-154 -13 -33 -23 29 -23 157 l-1 131 -37 23 c-21 13 -45 27 -55 31 -9 4 -45
26 -80 50 -35 24 -71 48 -79 53 -9 6 -45 29 -80 53 -34 23 -67 42 -71 42 -4 0
-8 6 -8 13 0 21 46 41 205 91 83 26 218 69 300 95 292 94 350 111 363 111 6 0
12 9 12 21 0 16 -4 19 -22 14 -71 -21 -256 -78 -273 -85 -11 -4 -54 -18 -95
-30 -41 -12 -113 -34 -160 -50 -47 -15 -132 -42 -190 -59 -58 -18 -130 -41
-160 -51 -30 -10 -122 -39 -205 -65 -82 -26 -190 -60 -240 -76 -49 -16 -95
-29 -101 -29 -5 0 -19 -6 -29 -14 -17 -12 -19 -33 -22 -227 -2 -117 -6 -216
-9 -218 -2 -2 -4 61 -4 141 0 80 -3 178 -6 219 -6 73 -7 75 -48 104 -22 17
-54 37 -71 46 -16 9 -64 40 -105 68 -41 29 -98 68 -127 88 -31 21 -50 40 -47
48 6 15 76 44 184 76 41 12 129 39 195 60 66 20 188 58 270 84 156 48 167 52
435 136 91 28 208 65 260 81 52 17 156 49 230 73 74 24 181 57 238 74 69 21
102 36 102 46 0 19 1 19 -95 -11z m-2735 -645 c0 -27 -2 -30 -15 -19 -8 7 -15
21 -15 31 0 11 7 19 15 19 10 0 15 -10 15 -31z m94 -108 c19 -21 13 -71 -9
-71 -16 0 -29 35 -20 50 4 6 1 17 -5 25 -19 23 13 19 34 -4z m66 -19 c0 -7 -4
-10 -10 -7 -5 3 -10 16 -10 28 0 18 2 19 10 7 5 -8 10 -21 10 -28z m-120 -22
c0 -11 -2 -20 -4 -20 -2 0 -6 9 -9 20 -3 11 -1 20 4 20 5 0 9 -9 9 -20z m164
-13 c10 -39 7 -49 -16 -45 -13 2 -22 6 -20 11 1 4 2 20 2 37 0 34 24 32 34 -3z
m-150 -83 c3 -8 10 -13 15 -9 18 11 56 -40 58 -78 1 -20 -3 -37 -8 -37 -5 0
-9 -9 -9 -21 0 -14 -5 -19 -17 -17 -13 3 -17 12 -15 32 3 32 -15 86 -29 86 -5
0 -9 -10 -9 -22 0 -12 -3 -18 -7 -15 -3 4 -6 23 -5 42 1 19 -3 35 -9 35 -6 0
-7 5 -4 10 9 15 32 12 39 -6z m106 -139 c7 -9 8 -15 2 -15 -5 0 -12 7 -16 15
-3 8 -4 15 -2 15 2 0 9 -7 16 -15z m979 -60 c14 -8 14 -45 1 -45 -14 0 -30 35
-29 67 0 26 1 26 9 7 5 -12 13 -25 19 -29z m-969 -15 c0 -5 -4 -10 -10 -10 -5
0 -10 5 -10 10 0 6 5 10 10 10 6 0 10 -4 10 -10z m975 -60 c3 -5 -1 -10 -10
-10 -9 0 -13 5 -10 10 3 6 8 10 10 10 2 0 7 -4 10 -10z m-858 -62 c-2 -13 -4
-5 -4 17 -1 22 1 32 4 23 2 -10 2 -28 0 -40z m1903 -15 c0 -13 -4 -23 -9 -23
-12 0 -16 8 -25 43 -6 26 -5 27 14 15 11 -7 20 -23 20 -35z m-2053 -20 c-11
-10 -27 8 -27 30 l0 21 16 -22 c9 -13 14 -26 11 -29z m2048 -33 c3 -5 2 -10
-4 -10 -5 0 -13 5 -16 10 -3 6 -2 10 4 10 5 0 13 -4 16 -10z m25 -226 c0 -8
-4 -14 -10 -14 -5 0 -10 9 -10 21 0 11 5 17 10 14 6 -3 10 -13 10 -21z"/>
</g>
</svg>
