<?xml version="1.0" standalone="no"?>
<!DOCTYPE svg PUBLIC "-//W3C//DTD SVG 20010904//EN"
 "http://www.w3.org/TR/2001/REC-SVG-20010904/DTD/svg10.dtd">
<svg version="1.0" xmlns="http://www.w3.org/2000/svg"
 width="297.000000pt" height="297.000000pt" viewBox="0 0 297.000000 297.000000"
 preserveAspectRatio="xMidYMid meet">

<g transform="translate(0.000000,297.000000) scale(0.100000,-0.100000)"
fill="#000000" stroke="none">
<path d="M2789 2829 c-10 -6 -7 -9 14 -9 29 0 35 5 14 13 -8 3 -20 1 -28 -4z"/>
<path d="M2880 2829 c0 -5 5 -7 10 -4 6 3 10 8 10 11 0 2 -4 4 -10 4 -5 0 -10
-5 -10 -11z"/>
<path d="M2955 2820 c6 -9 -1 -11 -26 -6 l-34 7 34 -16 c18 -8 35 -15 37 -15
9 0 3 29 -8 36 -7 5 -8 3 -3 -6z"/>
<path d="M2729 2789 c-6 -3 12 -9 39 -13 85 -11 205 -75 169 -89 -9 -4 -9 -6
1 -6 7 -1 10 -6 6 -12 -4 -7 -1 -10 7 -7 8 2 15 21 17 41 2 28 -1 38 -19 47
-17 10 -20 9 -13 -2 4 -7 -2 -5 -13 5 -11 9 -22 14 -26 11 -10 -10 -59 5 -52
16 4 6 -7 7 -27 4 -23 -4 -29 -3 -19 4 10 7 3 9 -23 9 -20 -1 -41 -4 -47 -8z"/>
<path d="M2615 2750 c-3 -5 -5 -10 -3 -11 2 0 23 -3 48 -5 95 -11 216 -72 191
-97 -17 -17 -13 -27 12 -27 16 0 18 3 8 9 -10 6 -5 12 18 22 17 8 31 17 31 20
0 11 -31 20 -42 12 -6 -3 -8 -1 -5 4 8 13 -64 58 -72 45 -8 -11 -74 6 -66 17
5 9 -18 22 -38 20 -7 0 -3 -4 8 -9 19 -8 19 -9 -2 -9 -13 -1 -23 4 -23 9 0 6
-13 10 -29 10 -17 0 -33 -4 -36 -10z"/>
<path d="M2535 2710 l-40 -6 37 -8 c20 -4 42 -5 49 0 8 4 10 3 5 -4 -5 -8 0
-12 13 -12 20 0 20 1 4 20 -10 11 -20 19 -23 19 -3 -1 -23 -5 -45 -9z"/>
<path d="M2630 2682 c1 -4 23 -18 50 -31 28 -13 50 -30 50 -38 0 -7 4 -13 10
-13 5 0 7 -7 4 -15 -8 -20 -38 -19 -55 1 -7 8 -34 26 -61 40 -49 25 -75 32
-48 13 11 -8 6 -9 -20 -4 -19 3 -50 8 -67 12 -21 3 -33 1 -33 -6 0 -6 16 -11
35 -11 41 0 113 -31 150 -66 19 -18 30 -21 48 -15 27 10 30 11 65 11 20 0 23
3 12 10 -18 11 -13 16 29 27 l35 9 -63 42 c-62 41 -89 52 -76 32 8 -13 -6 -13
-39 0 -14 5 -26 6 -26 2z"/>
<path d="M2402 2661 c-10 -6 -7 -10 14 -15 15 -4 30 -3 33 2 3 5 15 12 26 15
11 2 2 5 -20 6 -22 0 -46 -3 -53 -8z"/>
<path d="M2282 2611 c-9 -5 12 -12 60 -19 88 -13 148 -37 148 -58 0 -8 7 -29
16 -46 l16 -31 -38 23 c-98 59 -134 72 -134 48 0 -10 -2 -10 -9 0 -4 8 -11 13
-15 13 -3 -1 -14 -1 -23 0 -12 1 -10 4 7 9 14 4 18 9 10 10 -8 1 -26 3 -40 5
-14 2 -20 1 -13 -1 7 -3 9 -12 7 -19 -4 -9 4 -16 23 -20 85 -19 134 -54 125
-88 -1 -5 5 -6 15 -3 10 3 39 8 66 12 43 6 76 24 45 24 -8 1 -6 6 6 15 11 8
39 15 62 15 45 0 67 14 34 23 -10 3 -20 1 -22 -3 -2 -5 -30 9 -62 31 -35 24
-67 38 -78 36 -10 -3 -16 -2 -13 3 6 9 -44 24 -53 15 -3 -3 3 -5 13 -5 10 0
16 -2 13 -5 -3 -3 -25 -2 -49 2 -39 6 -41 8 -19 14 18 5 10 7 -30 8 -30 0 -61
-3 -68 -8z m253 -101 c3 -5 -1 -10 -9 -10 -8 0 -18 5 -21 10 -3 6 1 10 9 10 8
0 18 -4 21 -10z"/>
<path d="M2190 2560 c-12 -8 -12 -10 5 -9 11 0 29 4 40 9 18 8 18 9 -5 9 -14
0 -32 -4 -40 -9z"/>
<path d="M2245 2540 c3 -5 8 -10 11 -10 2 0 4 5 4 10 0 6 -5 10 -11 10 -5 0
-7 -4 -4 -10z"/>
<path d="M2025 2512 c-43 -11 -20 -18 52 -18 35 1 63 -2 63 -6 0 -4 16 -11 35
-17 47 -13 121 -57 129 -76 3 -8 0 -15 -6 -15 -6 0 -9 -2 -7 -4 10 -10 133 21
137 34 3 12 2 12 -8 3 -12 -11 -70 1 -70 16 0 11 -57 41 -64 34 -3 -3 -6 -1
-6 6 0 7 -6 11 -14 8 -8 -3 -17 1 -20 9 -4 11 -15 13 -47 8 -26 -5 -44 -3 -48
4 -9 15 -86 23 -126 14z"/>
<path d="M2930 2490 c0 -5 -7 -7 -15 -4 -22 9 -18 -16 6 -42 18 -20 24 -21 35
-9 22 22 18 65 -6 65 -11 0 -20 -4 -20 -10z m24 -29 c3 -4 3 -11 0 -14 -8 -8
-34 3 -34 14 0 11 27 12 34 0z"/>
<path d="M1919 2460 c-30 -4 -64 -12 -75 -18 -15 -9 -7 -11 41 -9 33 1 63 7
67 12 5 6 8 5 8 -2 0 -7 5 -13 12 -13 6 0 8 3 5 7 -4 3 -2 12 4 20 6 7 8 12 3
12 -5 -1 -34 -5 -65 -9z"/>
<path d="M2005 2450 c-10 -17 3 -27 51 -39 64 -16 127 -58 121 -80 -4 -15 1
-16 54 -8 46 8 55 12 46 22 -7 7 -15 11 -18 9 -3 -1 -21 10 -40 25 -25 20 -49
29 -89 34 -30 3 -68 11 -85 17 -28 11 -28 13 -10 20 19 8 19 9 -2 9 -12 1 -25
-3 -28 -9z"/>
<path d="M2823 2436 c-9 -11 -6 -16 13 -24 15 -8 22 -17 18 -27 -6 -14 7 -20
31 -15 6 1 7 -1 3 -5 -8 -9 16 -35 31 -35 6 0 10 -13 9 -29 -1 -19 -7 -27 -15
-24 -9 4 -8 -4 3 -27 22 -43 11 -49 -13 -8 -32 55 -84 108 -125 129 -33 17
-45 18 -74 9 -34 -11 -43 -24 -25 -34 5 -3 11 1 15 9 3 8 9 15 14 15 14 0 92
-82 86 -91 -3 -5 1 -9 8 -9 8 0 14 -14 15 -38 2 -35 1 -36 -14 -17 -16 21 -15
16 11 -50 16 -39 16 -39 -1 -15 -52 72 -98 124 -135 150 -40 29 -72 38 -81 22
-6 -8 27 -52 39 -52 12 0 64 -63 64 -78 0 -7 7 -15 15 -18 8 -4 15 -11 15 -16
0 -6 -6 -8 -14 -5 -10 4 -12 0 -9 -14 3 -10 1 -19 -4 -19 -6 0 -8 -12 -5 -27
4 -26 2 -25 -23 12 -55 81 -150 165 -186 165 -27 0 -75 -48 -62 -61 8 -8 13
-5 18 10 3 12 11 21 17 21 6 0 37 -26 70 -58 60 -61 73 -97 43 -122 -11 -9
-12 -17 -4 -32 20 -37 1 -30 -25 9 -39 59 -61 84 -76 87 -20 3 -88 46 -74 46
6 0 24 -10 40 -22 l29 -22 -20 23 c-24 28 -67 51 -95 51 -30 0 -25 -11 28 -67
69 -73 76 -83 59 -83 -29 0 -37 -22 -18 -49 10 -14 22 -37 26 -50 5 -15 -16 3
-55 48 -34 40 -80 86 -103 102 -40 29 -97 39 -97 18 0 -6 34 -44 75 -84 75
-72 93 -109 60 -121 -8 -4 -12 -10 -9 -15 3 -5 1 -9 -5 -9 -7 0 -7 -9 -1 -27
l10 -28 -21 25 c-75 92 -124 141 -165 169 -52 34 -78 38 -100 16 -16 -16 -10
-39 9 -32 14 4 37 -16 37 -32 0 -6 8 -11 18 -11 21 0 66 -43 55 -53 -3 -4 -1
-7 5 -7 7 0 12 -7 12 -15 0 -8 -5 -15 -11 -15 -5 0 -7 -5 -4 -10 4 -6 15 -8
26 -5 15 5 19 1 19 -19 0 -24 -10 -31 -34 -27 -5 1 -5 -6 -1 -16 17 -42 9 -82
-20 -95 -14 -6 -30 -25 -36 -43 -6 -17 -28 -42 -48 -55 -43 -30 -64 -38 -36
-14 19 16 19 16 -8 10 -17 -4 -26 -3 -23 3 9 15 -5 41 -22 41 -13 0 -12 -3 4
-14 18 -14 18 -14 -8 -12 -15 2 -25 0 -23 -5 3 -4 -3 -9 -12 -11 -23 -6 -69
17 -77 37 -3 8 -9 14 -14 13 -13 -5 -102 44 -97 53 3 4 -5 9 -17 11 -30 4 -33
23 -6 49 16 16 18 20 6 16 -23 -8 -30 19 -26 92 2 38 -2 64 -10 74 -8 9 -10
22 -6 28 5 9 2 10 -9 6 -21 -8 -22 2 -1 31 8 12 17 35 19 50 3 23 -4 32 -43
58 -26 17 -57 30 -69 29 -13 -1 -23 4 -23 12 0 7 -5 13 -11 13 -5 0 -8 -4 -5
-9 15 -23 -23 -19 -139 14 l-50 14 55 1 c44 1 50 3 32 10 -13 6 -51 6 -95 0
-39 -5 -80 -10 -90 -10 -10 0 -16 -4 -13 -9 3 -4 23 -7 45 -5 21 1 72 -6 112
-17 175 -45 243 -88 191 -120 -11 -7 -17 -20 -15 -29 8 -30 -30 -19 -86 26
-29 24 -58 44 -65 44 -6 -1 0 -7 14 -15 31 -17 21 -19 -15 -3 -22 10 -28 9
-37 -3 -8 -11 -9 -11 -5 3 3 9 -1 19 -9 22 -8 3 -14 0 -14 -8 0 -15 31 -46 46
-46 6 0 21 -12 33 -26 23 -26 23 -27 3 -22 l-21 6 19 -52 c11 -28 29 -59 41
-68 21 -18 21 -18 4 -95 -22 -99 -41 -137 -63 -128 -36 14 -66 16 -94 4 -20
-8 -32 -8 -41 -1 -7 6 -34 13 -60 16 -26 2 -53 8 -60 13 -20 16 -100 15 -138
-1 -20 -8 -39 -13 -41 -10 -3 2 -11 -2 -18 -11 -9 -11 -9 -15 -1 -15 7 0 10
-4 7 -9 -3 -4 4 -17 15 -27 32 -29 60 -91 55 -120 -3 -14 0 -38 6 -52 13 -33
11 -218 -3 -245 -20 -37 0 -28 27 12 14 23 30 41 35 41 12 0 -7 -45 -34 -83
-13 -18 -29 -44 -36 -59 -7 -14 -29 -34 -47 -44 -29 -16 -37 -17 -56 -5 -19
12 -23 11 -38 -10 -26 -34 -77 -31 -107 7 -12 16 -23 35 -23 42 0 6 -6 12 -14
12 -8 0 -28 12 -45 26 -17 14 -35 23 -41 19 -5 -3 -7 0 -4 8 16 43 -81 47
-154 7 l-37 -21 45 5 c25 3 62 9 83 12 32 6 36 4 31 -10 -4 -10 -18 -16 -35
-16 -25 0 -28 -2 -17 -13 7 -8 21 -12 32 -9 12 3 17 1 12 -6 -4 -7 3 -14 18
-18 29 -7 57 -34 36 -34 -10 0 -10 -3 0 -14 6 -8 17 -13 25 -10 7 3 16 1 20
-5 3 -6 -1 -11 -11 -11 -14 0 -15 -7 -10 -40 3 -22 15 -61 26 -87 l19 -48 2
50 c1 28 1 61 0 75 -1 19 5 12 24 -25 18 -36 24 -60 21 -85 -3 -19 -7 -57 -10
-83 -7 -56 -12 -67 -32 -67 -8 0 -14 -5 -14 -10 0 -6 -22 -33 -49 -60 -26 -26
-51 -55 -54 -64 -6 -14 -1 -13 31 3 39 20 184 121 208 146 17 16 20 140 3 150
-6 4 -8 14 -5 22 3 8 2 12 -3 9 -5 -3 -12 1 -15 11 -7 18 20 53 41 53 8 0 34
14 58 30 24 17 50 30 59 30 8 0 24 10 35 21 21 23 26 23 124 -1 52 -13 63 -37
20 -42 l-28 -3 33 -21 c19 -12 51 -43 71 -70 20 -27 46 -50 58 -52 15 -2 24
-13 28 -33 7 -29 8 -30 25 -14 11 10 20 27 22 38 7 48 113 60 141 17 12 -21
51 -27 62 -10 3 5 20 9 38 9 18 -1 41 1 52 5 28 9 54 -9 37 -26 -18 -18 -15
-26 11 -21 12 2 31 -2 42 -11 19 -14 18 -14 -13 -12 -18 1 -37 -3 -42 -9 -13
-15 1 -61 35 -114 15 -24 33 -61 41 -83 7 -22 23 -51 34 -65 31 -39 24 -93
-11 -93 -12 0 -28 -14 -40 -35 -11 -19 -29 -37 -40 -40 -11 -4 -19 -9 -16 -11
9 -10 115 40 164 77 59 44 65 46 57 21 -5 -14 -4 -14 6 2 15 22 14 150 0 176
-8 15 -5 24 12 42 13 13 35 37 50 53 14 17 38 38 52 48 14 10 26 24 26 31 0
19 54 36 109 35 38 -1 42 -2 21 -9 -17 -5 -1 -8 50 -7 48 0 62 2 40 6 -27 4
-18 7 40 11 67 4 75 7 75 25 0 22 34 32 63 19 9 -4 20 -7 24 -6 17 4 82 -32
118 -65 30 -27 39 -41 34 -56 -4 -13 -2 -17 5 -13 6 4 24 -3 41 -15 23 -17 33
-20 42 -11 21 21 -8 87 -58 131 -45 40 -146 86 -168 77 -7 -3 -7 -5 1 -5 25
-2 123 -43 123 -52 0 -10 -64 -4 -83 8 -19 12 -117 32 -167 33 -37 0 -42 3
-27 11 10 6 45 9 78 7 32 -1 59 0 59 5 0 4 -14 7 -32 7 -17 0 -28 3 -25 7 4 3
31 5 61 4 47 -2 54 1 59 19 4 18 11 20 44 16 21 -2 45 -5 53 -5 13 -1 13 -2 0
-12 -12 -9 -10 -10 8 -6 30 7 76 -17 104 -54 38 -49 77 -89 87 -89 15 0 22 35
12 62 -17 45 -64 89 -124 119 -71 34 -67 33 -67 14 0 -18 -2 -18 -110 -1 -47
8 -71 14 -54 15 17 1 46 4 65 8 28 5 30 7 14 15 -13 5 0 7 37 5 52 -3 57 -1
63 20 7 30 28 27 138 -22 36 -16 64 -56 52 -75 -3 -4 3 -6 14 -3 14 3 20 -2
25 -22 11 -42 26 -18 26 40 0 52 -1 54 -46 84 -44 30 -71 40 -60 22 11 -17
-20 -18 -69 -1 -42 14 -46 18 -29 24 12 3 34 2 49 -4 15 -6 30 -9 32 -6 7 7
-58 26 -89 26 -16 0 -27 4 -23 9 3 6 27 7 54 4 34 -4 58 -1 84 12 29 14 43 15
67 7 29 -11 30 -10 30 18 0 24 -5 30 -31 35 -17 4 -33 5 -35 2 -3 -3 8 -8 25
-12 17 -4 31 -11 31 -16 0 -6 -7 -6 -18 0 -10 5 -24 9 -32 9 -51 -3 -110 4
-110 12 0 6 21 11 48 11 43 1 45 2 17 10 -22 6 -14 7 31 5 56 -4 61 -2 57 15
-3 10 0 19 6 19 6 0 11 5 11 10 0 6 -21 10 -47 11 -36 0 -43 3 -28 9 11 5 34
9 50 9 23 1 27 4 15 11 -10 6 -11 10 -2 10 8 0 12 23 12 80 0 66 -2 78 -15 74
-8 -4 -15 -1 -15 5 0 6 6 10 13 8 9 -1 13 25 15 99 l3 101 -38 32 c-21 17 -44
29 -51 26 -7 -3 -11 -1 -8 4 3 5 -3 11 -14 14 -10 3 -21 0 -23 -7 -3 -8 -13
-8 -39 2 -19 6 -46 12 -61 12 -24 0 -54 30 -41 42 2 3 27 3 54 0 44 -4 50 -2
44 12 -3 9 -1 16 5 16 6 0 11 -4 11 -9 0 -5 15 -7 33 -4 22 3 47 -4 80 -21
l47 -25 0 30 c0 24 -4 30 -16 25 -10 -4 -13 -2 -8 6 5 8 2 9 -9 5 -10 -3 -17
-2 -17 3 0 5 -21 12 -47 16 -75 10 -88 26 -17 19 52 -6 62 -4 68 10 5 13 9 15
20 6 7 -6 16 -8 19 -4 12 12 7 23 -10 24 -15 0 -15 2 2 9 19 8 19 8 -5 18 -24
10 -24 11 -2 11 l22 1 0 193 0 193 -27 26 c-63 57 -97 70 -120 44z m-132 -163
c13 -15 12 -15 -8 -4 -24 12 -29 21 -14 21 5 0 15 -7 22 -17z m-91 -90 c0 -2
-8 1 -19 6 -10 6 -22 7 -27 3 -5 -4 -6 -3 -2 2 4 5 2 16 -5 24 -6 9 3 5 21 -8
17 -13 32 -25 32 -27z m-285 -124 l20 -24 -22 18 c-13 11 -27 16 -35 11 -7 -4
-10 -4 -6 1 4 4 -3 16 -15 27 l-22 19 30 -14 c17 -8 39 -26 50 -38z m148 -53
c4 4 7 2 7 -4 0 -27 -34 -6 -38 23 -2 18 -1 18 11 -3 7 -12 16 -19 20 -16z
m-333 14 c12 -8 11 -10 -7 -10 -13 0 -23 5 -23 10 0 13 11 13 30 0z m800 -70
c0 -5 -6 -10 -14 -10 -8 0 -18 5 -21 10 -3 6 3 10 14 10 12 0 21 -4 21 -10z
m-40 -80 c10 -6 2 -7 -25 -3 -49 7 -58 13 -19 13 16 0 36 -5 44 -10z m-215
-60 c-3 -5 -12 -10 -18 -10 -7 0 -6 4 3 10 19 12 23 12 15 0z m148 -64 c20 -9
55 -35 77 -57 50 -51 53 -87 8 -80 -4 0 -5 -14 -2 -32 6 -32 6 -32 -25 13 -17
25 -47 57 -68 72 -38 29 -142 72 -151 63 -3 -3 0 -5 6 -5 7 0 12 -5 12 -11 0
-11 -41 -7 -95 10 -31 10 -19 14 35 12 19 0 15 3 -15 14 l-40 14 59 -5 c45 -4
57 -3 50 7 -5 9 -2 11 9 6 10 -3 17 -3 17 2 0 11 78 -3 123 -23z m-113 -40 c0
-3 -4 -8 -10 -11 -5 -3 -10 -1 -10 4 0 6 5 11 10 11 6 0 10 -2 10 -4z m-109
-18 c0 -9 2 -9 5 -2 6 14 72 -7 85 -27 6 -10 9 -11 9 -1 0 10 4 10 20 0 13 -8
18 -19 14 -31 -5 -16 -3 -17 12 -9 14 8 24 4 46 -16 26 -25 40 -61 18 -47 -5
3 -10 -3 -10 -15 0 -12 4 -18 10 -15 6 4 7 -1 3 -11 -4 -11 -8 -13 -11 -6 -8
24 -22 11 -17 -15 5 -26 5 -26 -7 -9 -36 54 -86 98 -140 126 -60 29 -94 38
-84 22 7 -12 -19 -12 -104 1 -57 8 -69 12 -50 18 14 3 45 5 70 3 43 -4 44 -4
13 6 -18 6 -33 12 -33 13 0 1 28 2 62 2 40 0 63 4 66 13 2 6 8 12 13 12 5 0 9
-6 10 -12z m144 2 c3 -6 -1 -7 -9 -4 -18 7 -21 14 -7 14 6 0 13 -4 16 -10z
m-216 -96 c102 -34 173 -98 157 -140 -3 -8 -1 -14 4 -14 6 0 10 -4 10 -10 0
-6 -9 -6 -25 0 -26 10 -33 2 -14 -17 6 -6 9 -19 7 -29 -3 -16 -7 -14 -20 11
-37 66 -98 116 -180 146 -29 10 -53 17 -56 15 -2 -2 6 -7 17 -11 25 -8 19 -25
-7 -20 -57 11 -102 27 -103 38 0 9 -2 9 -6 0 -6 -15 -42 -17 -63 -3 -11 7 -7
10 18 10 22 0 31 4 26 11 -5 9 12 11 65 7 39 -3 70 -3 67 -1 -5 5 15 32 23 33
2 0 38 -12 80 -26z m-1084 0 c-109 -23 -220 -68 -210 -84 4 -7 11 -8 18 -1 7
5 29 12 50 16 20 4 40 11 43 16 3 5 26 9 51 9 41 0 44 -2 32 -17 -13 -15 -12
-15 9 -4 19 10 27 10 40 -2 41 -35 133 -79 155 -73 27 8 97 66 79 66 -7 0 -11
4 -8 8 7 12 -60 42 -129 57 -57 13 -58 13 -19 14 39 1 199 -50 218 -69 6 -6
-1 -13 -17 -19 -18 -7 -25 -15 -21 -26 3 -8 1 -15 -5 -15 -6 0 -11 -7 -11 -15
0 -8 -13 -21 -29 -30 -36 -18 -53 -40 -23 -31 14 5 21 1 25 -14 4 -17 0 -22
-23 -27 -24 -4 -28 -10 -28 -37 0 -17 -4 -67 -8 -111 -6 -70 -5 -78 8 -68 13
11 14 7 8 -30 -8 -55 -36 -97 -64 -95 -11 0 -43 -9 -69 -21 -27 -11 -62 -21
-78 -21 -16 0 -38 -5 -48 -11 -10 -7 -30 -9 -44 -5 -37 9 -97 64 -97 88 0 14
-12 24 -39 35 -65 25 -74 55 -61 198 10 122 11 129 9 178 -1 47 14 59 146 114
49 20 96 32 120 32 22 -1 31 -3 20 -5z m532 -20 c-3 -3 -12 -4 -19 -1 -8 3 -5
6 6 6 11 1 17 -2 13 -5z m176 -18 c4 -10 1 -13 -7 -10 -8 3 -20 -1 -27 -9 -7
-7 -23 -12 -35 -9 -12 2 -25 -1 -28 -7 -5 -7 2 -11 18 -11 60 0 60 -14 1 -28
-33 -7 -70 -13 -81 -13 -12 0 -27 -5 -33 -13 -9 -11 2 -12 62 -8 58 3 76 1 89
-12 11 -11 18 -12 20 -4 4 11 14 10 138 -18 14 -3 32 -12 41 -20 8 -8 18 -12
21 -9 3 3 11 -1 18 -10 10 -12 10 -18 -1 -32 -13 -17 -12 -17 4 -4 17 13 21
12 42 -15 23 -28 35 -71 16 -60 -5 3 -12 -1 -15 -10 -3 -8 -11 -12 -17 -8 -8
5 -8 1 0 -14 6 -11 11 -29 11 -39 0 -14 -3 -13 -17 7 -27 42 -76 90 -108 107
-73 38 -122 61 -145 67 -14 3 -3 -4 25 -17 l49 -23 -37 0 c-21 0 -32 3 -24 8
6 4 8 8 2 8 -5 0 -16 -4 -23 -9 -16 -10 -3 -21 46 -41 20 -8 31 -18 28 -26 -3
-8 0 -11 10 -7 17 6 44 -25 37 -44 -3 -7 2 -13 11 -13 17 0 20 -9 10 -34 -3
-8 -12 -12 -20 -9 -25 9 -15 -17 11 -29 23 -11 25 -15 19 -62 -13 -110 -49
-197 -75 -180 -6 3 -24 -1 -42 -9 -18 -8 -52 -18 -76 -22 -24 -4 -51 -15 -61
-25 -18 -18 -19 -17 -30 11 -7 16 -16 29 -21 29 -5 0 -9 9 -9 21 0 11 -4 18
-9 15 -5 -3 -14 1 -21 10 -7 8 -19 13 -27 10 -8 -3 -12 -2 -9 3 3 5 -5 11 -19
13 -14 3 -25 2 -25 -2 0 -10 -32 -7 -51 5 -9 6 -23 24 -32 40 -8 17 -27 37
-41 45 -49 26 -65 170 -19 170 12 0 14 6 8 28 -21 80 -6 102 117 175 34 20 90
54 123 73 33 20 92 47 130 59 39 13 71 24 71 24 1 1 4 -6 7 -13z m-578 -26 c3
-5 1 -10 -4 -10 -6 0 -11 5 -11 10 0 6 2 10 4 10 3 0 8 -4 11 -10z m776 -4
c104 -32 163 -68 157 -97 -2 -7 3 -13 10 -14 7 0 17 -7 22 -15 5 -8 10 -11 10
-6 0 10 30 -13 30 -23 0 -3 -10 -11 -22 -16 -17 -7 -23 -18 -23 -41 0 -34 -20
-36 -30 -4 -3 10 -16 29 -28 43 -26 30 -134 97 -156 97 -9 0 2 -9 24 -19 22
-11 32 -20 23 -20 -9 -1 -20 4 -23 9 -3 6 -13 10 -21 10 -8 0 -12 -5 -9 -10 4
-7 -1 -7 -17 0 -34 14 -155 40 -189 40 -19 0 -28 4 -24 11 4 6 23 10 44 9 57
-3 69 0 42 11 -37 15 -21 19 43 10 55 -7 58 -7 67 16 10 27 10 27 70 9z m-751
-36 c0 -5 -5 -10 -11 -10 -5 0 -7 5 -4 10 3 6 8 10 11 10 2 0 4 -4 4 -10z m35
-8 c-3 -3 -11 0 -18 7 -9 10 -8 11 6 5 10 -3 15 -9 12 -12z m1225 -57 c0 -8
-9 -19 -20 -25 -17 -9 -20 -8 -20 14 0 23 17 38 33 29 4 -2 7 -11 7 -18z
m-120 -85 c0 -15 -38 -32 -45 -20 -3 5 -3 15 0 20 8 13 45 13 45 0z m-139
-111 c-11 -9 -18 -19 -15 -22 3 -2 -1 -7 -8 -9 -9 -4 -14 5 -15 28 -4 41 24
63 45 36 11 -14 10 -20 -7 -33z m269 -49 c0 -5 -2 -10 -4 -10 -3 0 -8 5 -11
10 -3 6 -1 10 4 10 6 0 11 -4 11 -10z m-397 -24 c7 4 2 -4 -11 -17 -19 -20
-24 -22 -32 -9 -7 11 -5 19 8 28 11 8 18 9 20 2 2 -5 9 -7 15 -4z m259 -38
c-12 -12 -35 -1 -27 12 3 5 13 6 21 3 10 -4 12 -9 6 -15z m192 -57 c-2 -3 -12
3 -22 13 -16 17 -16 18 5 5 12 -7 20 -15 17 -18z m-633 -34 c-10 -9 -11 -8 -5
6 3 10 9 15 12 12 3 -3 0 -11 -7 -18z m502 -52 c12 -8 16 -15 10 -15 -7 0 -15
5 -18 11 -4 6 -14 8 -22 4 -24 -8 -53 4 -47 20 6 15 39 7 77 -20z m-99 -130
c4 -12 2 -13 -13 -6 -10 6 -22 7 -26 3 -5 -4 -5 -1 -1 6 10 17 33 15 40 -3z"/>
<path d="M2337 1569 c7 -7 15 -10 18 -7 3 3 -2 9 -12 12 -14 6 -15 5 -6 -5z"/>
<path d="M2378 1563 c7 -3 16 -2 19 1 4 3 -2 6 -13 5 -11 0 -14 -3 -6 -6z"/>
<path d="M1363 1533 c9 -2 23 -2 30 0 6 3 -1 5 -18 5 -16 0 -22 -2 -12 -5z"/>
<path d="M1865 1420 c-3 -5 -1 -10 4 -10 6 0 11 5 11 10 0 6 -2 10 -4 10 -3 0
-8 -4 -11 -10z"/>
<path d="M2218 1473 c7 -3 16 -2 19 1 4 3 -2 6 -13 5 -11 0 -14 -3 -6 -6z"/>
<path d="M2476 1437 c3 -10 9 -15 12 -12 3 3 0 11 -7 18 -10 9 -11 8 -5 -6z"/>
<path d="M2505 1371 c-3 -5 -1 -12 5 -16 5 -3 10 1 10 9 0 18 -6 21 -15 7z"/>
<path d="M1778 2400 c-71 -9 -71 -21 0 -19 34 1 67 -3 74 -8 7 -6 28 -14 45
-18 18 -3 52 -16 75 -28 73 -38 73 -38 48 -57 -17 -13 -20 -19 -10 -25 9 -5
11 -4 6 3 -5 9 12 12 62 12 50 0 73 4 82 15 10 12 9 15 -7 15 -10 0 -35 12
-54 26 -49 37 -80 48 -92 32 -6 -10 -7 -9 -4 4 3 9 -1 19 -9 22 -22 8 -26 7
-19 -4 9 -15 -34 -12 -80 5 l-40 14 34 1 c19 0 32 2 30 5 -9 8 -93 11 -141 5z"/>
<path d="M1580 2330 c-18 -6 -9 -8 32 -6 32 2 59 -1 60 -6 2 -5 21 -11 43 -15
62 -9 186 -69 192 -93 8 -30 92 -29 119 2 19 21 19 21 -3 16 -13 -4 -27 0 -34
8 -6 8 -15 12 -19 9 -4 -3 -14 2 -21 11 -12 14 -81 54 -94 54 -3 0 -4 -4 -1
-8 10 -17 -140 8 -169 28 -14 10 -76 10 -105 0z"/>
<path d="M1758 2333 c7 -3 16 -2 19 1 4 3 -2 6 -13 5 -11 0 -14 -3 -6 -6z"/>
<path d="M1525 2310 c3 -5 8 -10 11 -10 2 0 4 5 4 10 0 6 -5 10 -11 10 -5 0
-7 -4 -4 -10z"/>
<path d="M2895 2309 c-4 -6 -5 -12 -2 -15 2 -3 7 2 10 11 7 17 1 20 -8 4z"/>
<path d="M2305 2280 c-3 -5 -1 -10 4 -10 6 0 11 5 11 10 0 6 -2 10 -4 10 -3 0
-8 -4 -11 -10z"/>
<path d="M1440 2271 c-23 -7 -21 -8 15 -14 22 -4 66 -9 97 -13 58 -6 201 -70
201 -89 0 -5 -10 -14 -22 -20 -11 -5 -21 -13 -21 -18 0 -4 9 -3 19 3 29 15 83
12 109 -6 12 -8 28 -13 35 -11 6 3 3 6 -7 6 -18 1 -18 3 4 26 17 18 19 25 9
25 -21 0 -69 23 -69 33 0 4 -19 16 -42 27 -30 13 -48 16 -65 9 -32 -12 -42
-11 -23 2 12 8 11 9 -6 4 -25 -6 -76 13 -68 26 3 5 1 9 -5 9 -5 0 -11 -5 -13
-11 -2 -7 -17 -8 -43 -3 l-40 8 40 7 c35 5 33 6 -20 7 -33 0 -71 -3 -85 -7z"/>
<path d="M1628 2263 c7 -3 16 -2 19 1 4 3 -2 6 -13 5 -11 0 -14 -3 -6 -6z"/>
<path d="M2236 2245 c-11 -8 -16 -15 -10 -15 5 0 18 7 28 15 11 8 16 15 10 15
-5 0 -18 -7 -28 -15z"/>
<path d="M2158 2106 c-22 -17 -23 -30 -1 -47 9 -8 14 -9 10 -2 -4 6 -3 23 3
37 11 30 11 30 -12 12z"/>
<path d="M1380 2106 c0 -2 7 -7 16 -10 8 -3 12 -2 9 4 -6 10 -25 14 -25 6z"/>
<path d="M2550 2080 c0 -5 5 -10 10 -10 6 0 10 5 10 10 0 6 -4 10 -10 10 -5 0
-10 -4 -10 -10z"/>
<path d="M2180 2040 c0 -5 5 -10 11 -10 5 0 7 5 4 10 -3 6 -8 10 -11 10 -2 0
-4 -4 -4 -10z"/>
<path d="M2723 1813 c9 -2 23 -2 30 0 6 3 -1 5 -18 5 -16 0 -22 -2 -12 -5z"/>
<path d="M897 1596 c-6 -14 6 -30 52 -71 l34 -30 -28 52 c-28 53 -50 71 -58
49z"/>
<path d="M950 1586 c0 -2 8 -10 18 -17 15 -13 16 -12 3 4 -13 16 -21 21 -21
13z"/>
<path d="M1010 1501 c0 -5 5 -13 10 -16 6 -3 10 -2 10 4 0 5 -4 13 -10 16 -5
3 -10 2 -10 -4z"/>
<path d="M430 1130 c-8 -5 -12 -11 -9 -14 3 -3 14 1 25 9 21 16 8 20 -16 5z"/>
<path d="M379 1093 c-13 -15 -12 -15 9 -4 23 12 28 21 13 21 -5 0 -15 -7 -22
-17z"/>
<path d="M2648 1033 c6 -2 18 -2 25 0 6 3 1 5 -13 5 -14 0 -19 -2 -12 -5z"/>
<path d="M2897 929 c17 -29 43 -46 43 -29 0 6 -5 10 -11 10 -6 0 -8 9 -4 20 3
11 3 20 -2 21 -4 0 -16 2 -26 4 -16 3 -16 2 0 -26z"/>
<path d="M761 914 c0 -11 3 -14 6 -6 3 7 2 16 -1 19 -3 4 -6 -2 -5 -13z"/>
<path d="M2923 805 c-15 -20 -46 -47 -68 -62 -22 -15 -60 -47 -85 -72 -25 -25
-57 -53 -70 -61 -14 -8 -41 -31 -60 -50 -19 -20 -52 -48 -72 -64 -29 -21 -38
-36 -38 -58 0 -28 -31 -69 -70 -94 -33 -21 -72 -73 -66 -89 5 -13 11 -11 38
13 18 16 147 129 286 251 l252 222 0 49 c0 28 -4 50 -10 50 -5 0 -22 -16 -37
-35z"/>
<path d="M2780 811 c0 -10 19 -25 25 -20 1 2 -3 10 -11 17 -8 7 -14 8 -14 3z"/>
<path d="M2237 790 c19 -17 77 -30 84 -19 12 20 114 -17 150 -56 18 -19 36
-32 40 -30 4 3 9 -2 13 -10 3 -8 -3 -19 -12 -25 -15 -10 -14 -11 6 -6 17 3 26
-2 34 -19 6 -14 15 -22 21 -18 5 3 6 -3 2 -16 -4 -12 -2 -21 4 -21 6 0 11 5
11 10 0 6 8 10 18 8 19 -3 28 28 18 67 -12 49 -94 121 -156 139 -14 4 -5 -4
20 -19 51 -30 65 -42 35 -30 -11 4 -31 9 -45 11 -14 2 -45 11 -70 20 -44 16
-188 27 -173 14z"/>
<path d="M2620 727 c0 -2 14 -16 32 -33 31 -29 31 -29 12 -2 -16 23 -44 45
-44 35z"/>
<path d="M2499 602 c12 -23 27 -42 33 -42 6 0 3 9 -7 20 -10 12 -15 26 -11 37
4 9 4 14 0 10 -4 -4 -14 -1 -22 6 -10 8 -7 -3 7 -31z"/>
<path d="M1252 553 c-23 -15 -40 -33 -38 -40 3 -7 -3 -17 -12 -22 -9 -6 -13
-11 -8 -11 6 0 41 19 79 41 51 30 66 44 56 50 -22 13 -32 11 -77 -18z"/>
</g>
</svg>
